<svg version="1.1" id="图层_1" xmlns="http://www.w3.org/2000/svg" x="0" y="0" viewBox="0 0 200 200" style="enable-background:new 0 0 200 200" xml:space="preserve"><style>.st0{fill:#0d83cd}.st2{fill:#d8d8d8}</style><path class="st0" d="M117.7 95.1s7.3 34.8 34.5 22.2c0 0-11.4-10.8-6.6-17.1 4.8-6.3 23.3-25.3 23.3-25.3s15.2 15.5 1.8 30.3c0 0 13.3-11.3 29.4 1.6 0 0-22.1 33.7-36.4 20.4 0 0-26 40.9-88.4 45.8"/><path d="M59 48.6s-3.4-5.2-12-4.6c-8.6.6-3.4-12.6 6-10.9 9.4 1.8 4.8 9.2 6 15.5zm.9-15.6s.1-3.9-4.4-6.8c-4.6-2.9 2.9-7.7 7.1-3.3 4.1 4.4-.9 6.5-2.7 10.1zm2 15.6s3.4-5.2 12-4.6c8.6.6 3.4-12.6-6-10.9-9.5 1.8-4.9 9.2-6 15.5z" style="fill:#2595ce"/><path class="st0" d="M0 114.4c0 33.4 27 60.4 60.4 60.4s60.4-27 60.4-60.4S93.8 54 60.4 54 0 81.1 0 114.4z"/><path class="st2" d="M.1 117.6s20.8 8.2 36.3-1.4c8.8-5.5 8 33.7 33.6 40.5 25.6 6.9 68.1-3.4 93.5-29.4 0 0-53.8 78.3-133.1 42 .1-.1-29.1-12.5-30.3-51.7z"/><path class="st2" d="M51.7 114.1c0 4.6.6 9.2 1.9 13.6.3 1.1.7 2.2 1.1 3.2.4 1.1.9 2.1 1.5 3.1l.9 1.4 1 1.4 1.1 1.3 1.2 1.2c.8.8 1.7 1.5 2.6 2.1.4.3.9.6 1.4.9.5.3 1 .5 1.5.7 1 .5 2.1.8 3.2 1.1 1.1.2 2.2.5 3.3.6l1.7.2 1.7.1c1.1.1 2.3-.1 3.4-.1 1.1-.1 2.3-.3 3.4-.4l3.4-.7-.4.2c.3-.4.5-1 .8-1.5.2-.6.4-1.1.5-1.7.2-.6.2-1.2.3-1.8 0-.6.1-1.2.1-1.8v-1.8l-.2-1.8-.3-1.8c-.1-.6-.3-1.2-.4-1.8-.2-.6-.3-1.2-.5-1.8l-.6-1.7c-.2-.6-.5-1.1-.7-1.7s-.5-1.1-.7-1.7c-.6-1.1-1.1-2.2-1.7-3.3l-1.9-3.2 2.1 3.1c.7 1.1 1.3 2.2 1.9 3.2.3.6.6 1.1.8 1.7.3.6.6 1.1.8 1.7l.7 1.8.6 1.8c.2.6.4 1.2.5 1.8l.4 1.9.2 1.9c.1.6.1 1.3.1 1.9 0 .6-.1 1.3-.1 1.9-.1.6-.2 1.3-.3 1.9-.1.6-.3 1.3-.6 1.9-.3.6-.5 1.2-.9 1.8l-.1.2h-.2l-3.4.7c-1.2.2-2.3.3-3.5.5-1.2 0-2.3.2-3.5.2H74c-.6 0-1.2-.1-1.8-.2-1.2-.1-2.3-.4-3.5-.7-1.1-.4-2.3-.7-3.4-1.2-.6-.2-1.1-.5-1.6-.8l-1.5-.9c-1-.7-1.9-1.4-2.8-2.3-.4-.4-.8-.9-1.2-1.3l-1.1-1.4-1-1.5-.9-1.6c-.5-1.1-1-2.1-1.4-3.2-.4-1.1-.8-2.2-1-3.4-.3-1.1-.5-2.3-.7-3.4-.2-1.2-.3-2.3-.4-3.5-.2-2.4-.3-4.7 0-7z"/><path d="M19.7 94.2c0 3.1 2.5 5.6 5.6 5.6s5.6-2.5 5.6-5.6c0-3.1-2.5-5.6-5.6-5.6s-5.6 2.5-5.6 5.6z" style="fill:#434849"/><path d="M25.4 93.1c0 1.2.9 2.1 2.1 2.1s2.1-.9 2.1-2.1c0-1.2-.9-2.1-2.1-2.1s-2.1.9-2.1 2.1z" style="fill:#fff"/></svg>